# xmcd
#
# Track frame offsets:
#	150
#	18490
#	36390
#	50320
#	65502
#	78150
#	91672
#	107310
#	128752
#	139820
#	153382
#	170584
#
# Disc length: 2418 seconds
#
# Revision: 1
# Processed by: cddbd v1.5.2PL0 Copyright (c) Steve Scherf et al.
# Submitted via: audiograbber 1.83.01
#
DISCID=9009700c
DTITLE=Jon Lucien - I Am Now 
DYEAR=1970
DGENRE=Soul
TTITLE0=Dindi
TTITLE1=When I Look In Your Eyes
TTITLE2=The Shadow Of Your Smile
TTITLE3=Find Yourself A Lover
TTITLE4=Love For Sale
TTITLE5=My Cherie Amour
TTITLE6=I Am Now
TTITLE7=How Insensitive
TTITLE8=Who Will Buy?
TTITLE9=A Time For Us
TTITLE10=The Sound Of Music
TTITLE11=Who Will Buy? (Mono Version)
EXTD=Big Break Records CDBBR 0029\n2011 Reissue
EXTT0=
EXTT1=
EXTT2=
EXTT3=
EXTT4=
EXTT5=
EXTT6=
EXTT7=
EXTT8=
EXTT9=
EXTT10=
EXTT11=
PLAYORDER=
